<?xml version="1.0" encoding="UTF-8" standalone="no"?>
<!-- Created with Inkscape (http://www.inkscape.org/) -->

<svg
   version="1.1"
   id="svg15972"
   width="443.5"
   height="511.79675"
   viewBox="0 0 443.5 511.79675"
   sodipodi:docname="gradingicon.png"
   xmlns:inkscape="http://www.inkscape.org/namespaces/inkscape"
   xmlns:sodipodi="http://sodipodi.sourceforge.net/DTD/sodipodi-0.dtd"
   xmlns="http://www.w3.org/2000/svg"
   xmlns:svg="http://www.w3.org/2000/svg">
  <defs
     id="defs15976" />
  <sodipodi:namedview
     id="namedview15974"
     pagecolor="#ffffff"
     bordercolor="#000000"
     borderopacity="0.25"
     inkscape:showpageshadow="2"
     inkscape:pageopacity="0.0"
     inkscape:pagecheckerboard="0"
     inkscape:deskcolor="#d1d1d1"
     showgrid="false"
     inkscape:zoom="1.5703125"
     inkscape:cx="256.31841"
     inkscape:cy="256.31841"
     inkscape:window-width="1920"
     inkscape:window-height="991"
     inkscape:window-x="-9"
     inkscape:window-y="-9"
     inkscape:window-maximized="1"
     inkscape:current-layer="g15978" />
  <g
     inkscape:groupmode="layer"
     inkscape:label="Image"
     id="g15978"
     transform="translate(-46.599499,7.113081)">
    <path
       style="fill:#000000"
       d="m 65.093029,504.06672 c -6.89037,-2.11253 -13.03534,-7.31169 -16.63157,-14.07169 -1.79947,-3.38254 -1.86196,-10.78269 -1.86196,-220.5 V 52.495025 l 2.16237,-4 c 2.54911,-4.715385 7.45198,-9.538944 12.33763,-12.138047 3.21989,-1.712936 6.75702,-1.885322 44.195941,-2.153949 38.81478,-0.278499 40.72353,-0.378909 41.2927,-2.172214 2.27612,-7.171428 11.58093,-11.022314 26.65206,-11.030213 l 10.6407,-0.0056 0.37066,-7.340201 c 0.48269,-9.5585461 3.42136,-14.32548519 11.16755,-18.1153422 l 5.42159,-2.65254 31.04549,0.304042 31.04548,0.304041 4.33392,3.044405 c 5.77141,4.05419061 8.9473,9.9990651 9.58485,17.9416622 l 0.50694,6.315378 12.12106,0.349277 c 13.84364,0.398915 19.46307,2.621512 23.61559,9.34043 l 2.16859,3.508848 h 38.79271 c 46.91633,0 49.61667,0.613117 56.84372,12.906484 l 2.70045,4.593516 0.29422,38.169852 0.29421,38.169856 -2.23278,2.08015 c -2.78764,2.59708 -6.90879,2.66708 -9.99487,0.16975 l -2.36078,-1.9104 -0.5,-36.339606 c -0.275,-19.986781 -0.89203,-37.143745 -1.37118,-38.126587 -2.18291,-4.477619 -4.38667,-4.713015 -44.12297,-4.713015 h -37.59347 l 0.29381,7.25 0.29381,7.25 29.5,0.5 c 42.01182,0.712065 37.36398,-7.538893 38,67.458538 l 0.5,58.95853 22,-34.88445 c 22.79474,-36.14463 25.55423,-39.84977 32.0966,-43.09587 18.68615,-9.27145 51.4034,11.15056 51.4034,32.08583 0,7.11285 -4.63883,15.10753 -54.30995,93.59926 l -51.6519,81.62182 -0.26908,73.56286 -0.26907,73.56286 -2.86748,2.99266 c -5.17564,5.40157 1.59095,5.18309 -151.80933,4.90161 -162.122751,-0.29749 -146.823731,0.49593 -151.071631,-7.83472 -2.71241,-5.31936 -2.71241,-389.510285 0,-394.908995 3.92075,-7.803773 4.92869,-8.019933 37.396321,-8.019933 h 28.85212 v -7.5 -7.5 H 106.11528 68.131059 l -3.26578,2.917971 -3.26578,2.917971 V 269.39027 483.94958 l 2.77265,2.77272 2.77265,2.77273 162.451591,0.25892 162.45158,0.25893 3.27577,-2.92655 3.27576,-2.92654 0.5,-87.97781 c 0.48156,-84.73251 0.57027,-88.05545 2.40499,-90.08238 2.68553,-2.96689 8.9243,-2.90024 11.03831,0.11794 2.12474,3.0335 2.30119,175.94914 0.18558,181.86769 -2.00715,5.61512 -6.15368,10.32873 -11.87455,13.49851 l -5.25433,2.91129 -164,0.17008 c -90.2,0.0935 -165.127911,-0.17574 -166.506471,-0.59839 z M 240.0995,457.99185 c 0,-5.33968 14.0995,-59.25096 16.99734,-64.99155 12.52852,-24.81886 21.04951,-32.84635 26.93008,-25.37041 3.07212,3.90556 2.77967,4.83938 -5.92658,18.92422 -4.39953,7.11751 -7.99953,13.45 -8,14.07221 -6.7e-4,0.9013 7.06073,3.54506 10.17852,3.81081 1.86193,0.15869 139.8621,-219.82533 138.61258,-220.96025 -0.71057,-0.6454 -2.9527,-2.16302 -4.98253,-3.37249 l -3.69058,-2.19904 -3.70805,5.79484 c -2.03943,3.18716 -26.19698,41.34484 -53.68345,84.79484 -27.48647,43.45 -50.48209,79.34148 -51.10137,79.75884 -4.79109,3.22894 -10.88374,0.48711 -11.44242,-5.14934 -0.27039,-2.72795 5.44368,-12.29442 39.25,-65.71215 L 369.0995,214.87299 V 146.93401 78.995025 h -139 -139.000001 v 190.500005 190.5 H 165.5995 c 73.8727,0 74.5,-0.0169 74.5,-2.00318 z m -112.78859,-21.1256 c -11.53523,-3.32667 -13.20026,-9.23881 -13.20026,-46.87122 0,-49.73067 -1.5665,-48.23533 50.06401,-47.78976 l 33.57515,0.28976 3.51502,2.40982 c 1.93326,1.32541 4.59944,3.99162 5.92485,5.92493 l 2.40982,3.5151 0.28726,34.29187 c 0.42806,51.099 2.0934,49.40002 -48.28726,49.26251 -17.05,-0.0465 -32.47987,-0.51139 -34.28859,-1.03301 z m 66.58859,-15.07122 c 1.71532,-1.71532 1.71532,-61.88468 0,-63.6 -1.71532,-1.71532 -61.88468,-1.71532 -63.6,0 -2.02786,2.02786 -1.6804,61.17674 0.37143,63.22857 2.05183,2.05183 61.20071,2.39929 63.22857,0.37143 z m -41.64432,-12.49372 c -2.60794,-1.03949 -13.15568,-16.57173 -13.15568,-19.37261 0,-8.33851 8.16833,-9.78886 14.43665,-2.56335 l 4.08054,4.70366 7.91084,-10.63563 c 8.73723,-11.74665 10.90864,-13.36997 15.39719,-11.51075 7.61008,3.1522 6.69855,6.72911 -6.12541,24.03643 -12.27629,16.56818 -14.93276,18.37603 -22.54413,15.34225 z m -26.67427,-93.69985 c -10.47678,-4.56502 -11.65239,-9.60847 -11.28313,-48.40537 l 0.30172,-31.70106 2.65194,-4.51075 c 5.33516,-9.07468 5.49494,-9.10508 46.12873,-8.77587 l 35.37802,0.28662 3.78949,2.89153 c 7.43438,5.67273 7.66563,7.10352 7.33973,45.41336 l -0.28791,33.84504 -2.75112,4.15528 c -5.3459,8.07445 -6.03121,8.20016 -44.45904,8.15565 -25.65829,-0.0297 -34.51627,-0.35567 -36.80843,-1.35443 z m 66.95349,-13.58168 2.5651,-0.97525 v -31.48957 c 0,-30.10935 -0.0848,-31.53494 -1.93426,-32.52475 -3.72416,-1.99311 -59.45956,-1.35031 -61.98002,0.71482 -2.1076,1.72686 -2.1322,2.15293 -1.86078,32.22088 l 0.27506,30.47087 2.5,1.26438 c 3.08046,1.55795 56.43535,1.83925 60.4349,0.31862 z M 153.5995,292.041 c -4.25464,-1.75983 -14.5,-16.03887 -14.5,-20.20876 0,-7.84611 9.33422,-9.23235 14.46569,-2.14831 3.97697,5.49024 3.28569,5.84792 12.11623,-6.26925 9.63251,-13.21763 14.25721,-15.17338 18.94871,-8.01325 2.34758,3.58287 1.53216,5.28439 -10.18536,21.25357 -11.58425,15.78755 -14.56156,17.98512 -20.84527,15.386 z m 84.5,0.24459 c -5.14688,-1.89247 -6.76576,-8.5248 -3,-12.29056 1.89909,-1.89909 3.33333,-2 28.42742,-2 h 26.42742 l 2.07258,2.63486 c 3.37118,4.28576 1.87858,9.53991 -3.21448,11.31536 -3.09103,1.07755 -47.89034,1.3782 -50.71294,0.34034 z m -3,-33.29056 c -2.97766,-2.97766 -2.66668,-8.33043 0.63486,-10.92742 2.5445,-2.00151 3.76452,-2.07258 35.57692,-2.07258 h 32.94207 l 3.02516,3.02517 c 3.44409,3.44408 3.32422,7.13068 -0.33244,10.22483 -3.40707,2.88297 -68.94164,2.65493 -71.84657,-0.25 z M 125.55813,195.11537 c -10.56284,-4.79803 -11.44748,-8.36212 -11.44748,-46.12034 0,-49.443095 -1.50001,-47.94462 48.02696,-47.97805 36.83834,-0.0249 37.92306,0.17836 44.40392,8.31931 l 3.05797,3.84127 0.30185,33.15874 c 0.4798,52.70744 2.45613,50.61481 -47.80185,50.61481 -29.39631,0 -32.88594,-0.17531 -36.54137,-1.83574 z m 68.34137,-14.32034 c 1.71532,-1.71532 1.71532,-61.88468 0,-63.6 -2.3391,-2.3391 -62.4907,-1.64645 -63.76482,0.73426 -1.55302,2.90186 -1.39992,61.301 0.16482,62.86574 1.71532,1.71532 61.88468,1.71532 63.6,0 z m -40.7673,-12.55155 c -4.50565,-2.27205 -14.0327,-15.44234 -14.0327,-19.39894 0,-7.85734 9.32973,-9.25084 14.46569,-2.16061 3.97697,5.49024 3.28569,5.84792 12.11623,-6.26925 9.63251,-13.21763 14.25721,-15.17338 18.94871,-8.01325 3.77912,5.76768 -19.45727,37.61267 -27.42985,37.59205 -0.33043,-8.6e-4 -2.16107,-0.78836 -4.06808,-1.75 z m 81.9673,1.75155 c -2.97766,-2.97766 -2.66668,-8.33043 0.63486,-10.92742 3.46858,-2.72838 49.23526,-3.22534 54.33153,-0.58996 4.94093,2.55505 4.98566,9.86712 0.0764,12.49446 -4.05055,2.16781 -52.7626,1.30311 -55.04279,-0.97708 z m 0.63486,-31.07258 c -3.30154,-2.59699 -3.61252,-7.94976 -0.63486,-10.92742 1.94594,-1.94594 3.33333,-2 51.32569,-2 h 49.32568 l 2.17432,2.31445 c 2.88427,3.07017 2.77173,7.17904 -0.28024,10.231 l -2.45454,2.45455 h -48.4106 c -47.4615,0 -48.46225,-0.0406 -51.04545,-2.07258 z m 133.33473,262.82258 c -0.0181,-34.72437 -0.39171,-57.64419 -0.92501,-56.75 -12.75675,21.38947 -53.77505,84.22865 -57.44848,88.00986 -2.69714,2.77628 -10.57214,9.60892 -17.5,15.18364 -6.92785,5.57472 -13.0236,10.51175 -13.5461,10.97118 -0.5225,0.45942 19.39,0.83532 44.25,0.83532 h 45.2 l -0.0304,-58.25 z m -95.70172,43.34869 c 16.5121,-13.34645 16.57352,-13.41113 15.00731,-15.80147 -3.36009,-5.12814 -20.85411,-15.05162 -22.91003,-12.9957 -0.50498,0.50498 -10.35306,40.45612 -10.36097,42.03181 -0.007,1.4291 1.23981,0.52548 18.26369,-13.23464 z m 30.55041,-26.84869 c 1.07495,-1.5125 32.83384,-51.53953 70.5753,-111.17117 l 68.62084,-108.42117 -4.25721,-2.82455 c -2.34146,-1.5535 -4.71394,-2.82647 -5.27217,-2.82883 -0.55823,-0.002 -32.31038,49.38322 -70.56035,109.74572 l -69.54538,109.75 3.56034,4.21721 c 4.23908,5.02115 4.37748,5.05199 6.87863,1.53279 z M 454.62622,180.38581 c 1.97349,-3.08507 3.44982,-5.74138 3.28073,-5.90291 -0.36708,-0.35065 -23.74918,-15.13019 -28.94533,-18.29599 l -3.63789,-2.21641 -3.2026,4.99082 c -1.76143,2.74495 -3.04412,5.46623 -2.85044,6.04729 0.25207,0.75621 29.62316,20.22164 31.54808,20.90821 0.1206,0.043 1.83395,-2.44594 3.80745,-5.53101 z m 16.22328,-25.63364 c 6.92408,-11.76931 5.37093,-16.56548 -8.09018,-24.98259 -8.9268,-5.58185 -13.9678,-6.41402 -18.51156,-3.05591 -3.20733,2.37041 -10.14934,12.27621 -9.85764,14.06622 0.16935,1.03922 29.95726,20.88648 31.70938,21.1275 0.275,0.0378 2.4125,-3.18202 4.75,-7.15522 z M 301.88672,53.042 c 0.46929,-17.078668 0.71567,-16.861689 -19.6166,-17.275615 l -13.32939,-0.27136 -3.42061,-3.735315 c -3.29892,-3.602423 -3.42062,-4.020455 -3.42062,-11.75 0,-12.6444431 1.66918,-12.0146851 -31.84501,-12.0146851 -32.76906,0 -30.68676,-0.764421 -31.35836,11.5117431 -0.78277,14.308234 -3.76088,16.488257 -22.52446,16.488257 -17.74461,0 -17.27217,-0.4257 -17.27217,15.563367 v 12.449959 l 71.25,-0.256663 71.25,-0.256663 z"
       id="path16099" />
  </g>
</svg>
