<?xml version="1.0" encoding="UTF-8" standalone="no"?>
<!-- Created with Inkscape (http://www.inkscape.org/) -->

<svg
   version="1.1"
   id="svg14784"
   width="50.553268"
   height="73.581329"
   viewBox="0 0 50.55327 73.581331"
   sodipodi:docname="references_icon.jpg"
   xmlns:inkscape="http://www.inkscape.org/namespaces/inkscape"
   xmlns:sodipodi="http://sodipodi.sourceforge.net/DTD/sodipodi-0.dtd"
   xmlns="http://www.w3.org/2000/svg"
   xmlns:svg="http://www.w3.org/2000/svg">
  <defs
     id="defs14788" />
  <sodipodi:namedview
     id="namedview14786"
     pagecolor="#ffffff"
     bordercolor="#000000"
     borderopacity="0.25"
     inkscape:showpageshadow="2"
     inkscape:pageopacity="0.0"
     inkscape:pagecheckerboard="0"
     inkscape:deskcolor="#d1d1d1"
     showgrid="false" />
  <g
     inkscape:groupmode="layer"
     inkscape:label="Image"
     id="g14790"
     transform="translate(-36.338264,-14.78195)">
    <path
       id="path14911"
       style="fill:#000000;stroke-width:0.32"
       d="m 61.403253,14.78195 c -17.041913,0 -19.810042,0.06706 -20.841797,0.498047 -0.654345,0.273337 -1.60318,0.884712 -2.109375,1.359375 -0.506191,0.474663 -1.187729,1.438579 -1.513672,2.142578 -0.564537,1.219346 -0.592909,2.840287 -0.599609,34.191406 -0.0064,30.177682 0.03726,32.984812 0.527344,33.814453 0.293955,0.497625 0.835127,1.0509 1.201172,1.228516 0.425221,0.206333 8.119603,0.32993 21.3125,0.34375 18.216722,0.01911 20.734242,-0.03596 21.363281,-0.476562 0.39217,-0.274685 0.928417,-0.917206 1.191406,-1.425782 0.263,-0.508575 0.476563,-1.72248 0.476563,-2.699218 0,-1.775907 0.0012,-1.776104 1.201172,-1.783204 0.659999,-0.0039 1.507413,-0.25646 1.882812,-0.560546 0.37541,-0.304086 0.842473,-0.867525 1.039063,-1.251954 0.255329,-0.499266 0.357422,-8.805521 0.357422,-29.072265 0,-28.373009 1.08e-4,-28.372939 -1.087891,-29.460938 -1.087999,-1.087999 -1.087122,-1.08789 -20.919922,-1.08789 -17.705272,0 -19.878407,0.05536 -20.253906,0.507812 -0.30527,0.367767 -0.328004,0.652173 -0.08398,1.039063 0.30686,0.48653 2.037754,0.539954 19.791016,0.615234 13.722056,0.05819 19.581636,0.18788 19.884766,0.439453 0.353679,0.293485 0.429687,5.250897 0.429687,27.972656 0,15.18804 -0.08653,27.840748 -0.193359,28.119141 -0.11518,0.30016 -0.572115,0.507812 -1.121094,0.507812 -0.925759,0 -0.925781,-10e-4 -0.925781,-25.296874 0,-21.816373 -0.06416,-25.42321 -0.476563,-26.220704 -0.262989,-0.508575 -0.799246,-1.149143 -1.191406,-1.423828 -0.626579,-0.438873 -3.004248,-0.5 -19.607422,-0.5 -17.777322,0 -18.958618,-0.03434 -19.998047,-0.591797 -0.60759,-0.325853 -1.37792,-0.958257 -1.710937,-1.404297 -0.333017,-0.44604 -0.669797,-1.438927 -0.748047,-2.207031 -0.09734,-0.955486 0.04047,-1.74343 0.435547,-2.49414 0.317599,-0.603489 0.983675,-1.395255 1.480468,-1.759766 0.884816,-0.649216 1.309169,-0.665533 20.765626,-0.822266 18.080941,-0.145652 19.893159,-0.207992 20.199218,-0.693359 0.24395,-0.386843 0.219242,-0.67134 -0.08594,-1.039062 C 81.098136,14.8374 78.942716,14.78195 61.403253,14.78195 Z M 39.483331,27.488981 c 0.130156,0.01136 0.279219,0.08838 0.449219,0.177735 1.357628,0.713615 1.391632,0.714948 20.398438,0.798828 17.392752,0.07676 19.076006,0.130425 19.441406,0.621093 0.3128,0.419997 0.400391,6.565664 0.400391,28.177735 0,18.440897 -0.111022,27.84485 -0.332032,28.257812 -0.322109,0.601873 -0.886345,0.619141 -20.416015,0.619141 -15.194785,0 -20.178242,-0.0923 -20.46875,-0.382812 -0.29306,-0.293059 -0.384766,-7.302833 -0.384766,-29.595704 0,-25.55948 10e-4,-28.753363 0.912109,-28.673828 z m 30.769532,5.533203 c -2.440868,0 -3.269084,0.11283 -3.658204,0.501953 -0.420359,0.420316 -0.501953,1.460442 -0.501953,6.330079 0,4.758962 0.09049,5.955234 0.498047,6.537109 0.40276,0.575023 0.619745,0.649175 1.121094,0.380859 0.539669,-0.288819 0.619141,-0.687309 0.619141,-3.041015 0,-2.70874 1.97e-4,-2.708985 2.041015,-2.708985 1.423669,0 2.161554,-0.145621 2.439453,-0.480468 0.31782,-0.38295 0.31782,-0.576035 0,-0.958985 -0.277899,-0.334847 -1.015784,-0.480468 -2.439453,-0.480468 -2.040818,0 -2.041015,7.6e-5 -2.041015,-1.919922 0,-1.919998 2.47e-4,-1.919922 2.708984,-1.919922 2.348758,0 2.754336,-0.08151 3.041016,-0.617188 0.249569,-0.466325 0.207214,-0.741996 -0.171875,-1.121094 -0.38837,-0.388364 -1.217083,-0.501953 -3.65625,-0.501953 z m -22.822266,0.002 c -1.023569,-9.82e-4 -2.140039,0.147887 -2.480469,0.330079 -0.580159,0.310482 -0.61914,0.729998 -0.61914,6.703125 0,5.700285 0.05921,6.405459 0.552734,6.68164 0.35,0.195832 0.758641,0.196838 1.119141,0.0039 0.466429,-0.249627 0.568359,-0.730691 0.568359,-2.691406 0,-2.267421 0.03726,-2.388283 0.720703,-2.376953 0.52438,0.0087 1.242267,0.719975 2.640625,2.619141 1.055999,1.4342 2.083623,2.659576 2.283203,2.722656 0.19957,0.06308 0.594477,-0.117915 0.878906,-0.402344 0.28442,-0.284428 0.517579,-0.63463 0.517579,-0.777344 0,-0.142709 -0.713406,-1.176563 -1.583985,-2.296874 -1.372448,-1.766143 -1.507011,-2.063598 -1.013672,-2.246094 0.31293,-0.115766 0.968812,-0.685405 1.457032,-1.265625 0.795199,-0.944991 0.873826,-1.248252 0.753906,-2.90625 -0.10011,-1.384037 -0.325226,-2.054405 -0.890625,-2.65625 -0.41588,-0.442679 -1.269368,-0.948298 -1.898438,-1.123047 -0.629069,-0.174752 -1.98229,-0.3174 -3.005859,-0.31836 z m 12.480469,0.002 c -1.551569,-0.0027 -3.099024,0.145933 -3.439453,0.328125 -0.58016,0.310482 -0.619141,0.729998 -0.619141,6.703125 0,5.73178 0.05492,6.405859 0.558594,6.699218 0.307999,0.179395 1.94813,0.330638 3.642578,0.335938 2.311988,0.0073 3.175464,-0.106401 3.464844,-0.455078 0.212079,-0.255546 0.33589,-0.722609 0.27539,-1.039063 -0.09422,-0.492754 -0.511392,-0.588789 -2.90625,-0.667969 -2.796397,-0.09246 -2.794922,-0.09246 -2.794922,-2 0,-1.90754 4.2e-5,-1.908203 1.88086,-1.908203 1.204289,0 2.010611,-0.158077 2.24414,-0.439453 0.20054,-0.241693 0.275886,-0.674631 0.166016,-0.960937 -0.15565,-0.405632 -0.651995,-0.519531 -2.246094,-0.519531 -2.045758,0 -2.044922,8.01e-4 -2.044922,-1.90625 0,-1.907059 -0.0013,-1.907061 2.638672,-2 2.508148,-0.0883 2.645447,-0.131759 2.748047,-0.857422 0.0594,-0.420096 -0.08491,-0.885947 -0.320312,-1.035157 -0.23539,-0.149205 -1.696479,-0.274743 -3.248047,-0.277343 z m -12.722657,2.271484 c 1.959238,-0.05614 4.705345,1.145553 3.677735,2.958984 -1.217909,2.149251 -4.693359,1.396485 -4.693359,1.396485 l 0.03711,-4.189453 c 0.27985,-0.100747 0.615694,-0.15562 0.978514,-0.166016 z m 18.302735,16.324219 c -1.719146,-9.07e-4 -3.877769,0.0098 -6.597656,0.0293 -12.628358,0.09063 -12.626703,0.09124 -13.513672,0.978515 -0.886969,0.887269 -0.888672,0.887123 -0.888672,8.746094 0,7.858968 -1.27e-4,7.859219 1.044922,8.792969 1.045039,0.933732 1.046615,0.932434 13.601562,0.927734 9.391171,-0.0035 12.755106,-0.105295 13.353516,-0.404297 0.439999,-0.219856 1.05945,-0.90012 1.375,-1.513672 0.509899,-0.991414 0.563769,-1.899648 0.480469,-8.15625 -0.06631,-4.980785 -0.214197,-7.248804 -0.503907,-7.755859 C 73.617487,52.872242 73.002821,52.32715 72.477472,52.055483 71.860298,51.736342 70.64858,51.62461 65.491144,51.62189 Z m -6.294922,2.205078 c 6.520793,0.0027 12.038269,0.121848 12.261719,0.263672 0.312999,0.198621 0.386812,1.905288 0.320312,7.433593 -0.08627,7.177226 -0.08556,7.177979 -12.257812,7.261719 -9.200271,0.06329 -12.267487,-0.01162 -12.560547,-0.304687 -0.27915,-0.279149 -0.388672,-2.277624 -0.388672,-7.138672 0,-4.824885 0.110366,-6.862319 0.384766,-7.136719 0.285029,-0.285031 3.439953,-0.382506 12.240234,-0.378906 z m 0.199219,3.515625 c -7.114543,0 -8.651134,0.07978 -8.970703,0.464844 -0.21212,0.255554 -0.292135,0.758696 -0.177735,1.11914 0.20296,0.639457 0.421961,0.65625 8.976563,0.65625 8.070752,0 8.790393,-0.04524 9.070312,-0.568359 0.19258,-0.360493 0.190021,-0.771088 -0.0059,-1.121094 C 68.007648,57.392434 67.189802,57.34259 59.3954,57.34259 Z m 4.457031,5.804687 c -1.176948,-0.001 -2.680343,0.01017 -4.605469,0.0293 -7.624452,0.07576 -8.643586,0.146734 -8.941406,0.619141 -0.24384,0.386789 -0.221155,0.671389 0.08398,1.039062 0.36467,0.439392 1.562943,0.507813 9.009766,0.507813 8.049602,0 8.609393,-0.03736 8.908203,-0.595703 0.22202,-0.414755 0.20147,-0.758205 -0.06836,-1.126953 -0.26013,-0.355519 -0.855876,-0.469584 -4.386719,-0.472657 z M 42.075128,77.182341 c -0.141879,0 -0.483197,0.22538 -0.759765,0.501953 -0.36601,0.366008 -0.503907,1.143829 -0.503907,2.857422 0,1.713592 0.137897,2.491413 0.503907,2.857421 0.359362,0.359367 1.129126,0.503907 2.697265,0.503907 1.568139,0 2.337906,-0.14454 2.697266,-0.503907 0.27657,-0.276568 0.501953,-0.617886 0.501953,-0.759765 0,-0.141878 -0.183733,-0.411366 -0.408203,-0.597656 -0.22447,-0.186294 -1.124471,-0.384194 -2,-0.439453 -1.591874,-0.100467 -1.592246,-0.09931 -1.691406,-1.84961 -0.05454,-0.962661 -0.252443,-1.934818 -0.439453,-2.160156 -0.187012,-0.225334 -0.455779,-0.410156 -0.597657,-0.410156 z" />
  </g>
</svg>
