<?xml version="1.0" encoding="UTF-8" standalone="no"?>
<!-- Created with Inkscape (http://www.inkscape.org/) -->

<svg
   version="1.1"
   id="svg13489"
   width="44.799683"
   height="88.531105"
   viewBox="0 0 44.799683 88.531103"
   sodipodi:docname="hi.jpg"
   xmlns:inkscape="http://www.inkscape.org/namespaces/inkscape"
   xmlns:sodipodi="http://sodipodi.sourceforge.net/DTD/sodipodi-0.dtd"
   xmlns="http://www.w3.org/2000/svg"
   xmlns:svg="http://www.w3.org/2000/svg">
  <defs
     id="defs13493" />
  <sodipodi:namedview
     id="namedview13491"
     pagecolor="#ffffff"
     bordercolor="#000000"
     borderopacity="0.25"
     inkscape:showpageshadow="2"
     inkscape:pageopacity="0.0"
     inkscape:pagecheckerboard="0"
     inkscape:deskcolor="#d1d1d1"
     showgrid="false"
     inkscape:zoom="5.1275509"
     inkscape:cx="98.000002"
     inkscape:cy="78.497514"
     inkscape:window-width="1920"
     inkscape:window-height="991"
     inkscape:window-x="-9"
     inkscape:window-y="-9"
     inkscape:window-maximized="1"
     inkscape:current-layer="g13495" />
  <g
     inkscape:groupmode="layer"
     inkscape:label="Image"
     id="g13495"
     transform="translate(-73.107039,-36.845238)">
    <path
       style="fill:#000000;stroke-width:0.301428"
       d="m 89.881843,123.91756 c 0.1044,-0.83734 0.47249,-6.05829 0.818,-11.6021 0.3455,-5.54381 0.70561,-11.13737 0.80025,-12.430136 0.14492,-1.97954 0.0917,-2.37784 -0.33685,-2.52377 -0.2799,-0.0953 -2.61952,-0.0371 -5.19915,0.12937 -2.57962,0.16646 -4.72645,0.27051 -4.77072,0.23123 -0.0443,-0.0393 0.5302,-0.7905 1.27659,-1.669387 l 1.35708,-1.597983 1.47236,0.159366 c 1.16951,0.126583 1.51301,0.06538 1.66996,-0.297508 0.10867,-0.251282 0.49011,-0.456875 0.84763,-0.456875 0.93568,0 0.80501,-0.388315 -0.46311,-1.37625 -1.11961,-0.872237 -1.99178,-1.105999 -4.64684,-1.245477 -1.28035,-0.06726 -1.45134,-0.0048 -1.54226,0.563206 -0.0915,0.571808 -0.28233,0.638851 -1.81821,0.638851 -1.52882,0 -1.78813,-0.08993 -2.37775,-0.824649 -0.36398,-0.453555 -0.66178,-0.970428 -0.66178,-1.1486 0,-0.216454 -0.37166,-0.262088 -1.12,-0.13752 -0.90929,0.151356 -1.12,0.09902 -1.12,-0.278167 0,-0.290281 0.36445,-0.529274 0.97136,-0.636975 0.88556,-0.157152 1.85941,-1.087484 1.48557,-1.41919 -0.0852,-0.07559 -0.74487,0.129596 -1.46592,0.455989 -1.3763,0.623003 -1.50897,0.588831 -0.99866,-0.25722 0.24716,-0.409772 0.18037,-0.548484 -0.32,-0.664588 -0.34779,-0.0807 -0.63235,-0.367062 -0.63235,-0.636358 0,-0.40316 0.20247,-0.460481 1.14643,-0.324561 l 1.14643,0.165072 -0.532,-0.720426 c -0.2926,-0.396232 -0.4845,-0.759326 -0.42643,-0.806871 0.0581,-0.04755 0.83705,0.0482 1.73109,0.212772 1.35251,0.248963 2.13184,0.198057 4.64,-0.303091 1.94337,-0.3883 3.53397,-0.544974 4.47651,-0.440943 1.35495,0.149553 1.52583,0.0941 2.33315,-0.757212 1.03616,-1.092621 0.93008,-1.286025 -0.49374,-0.900131 -1.58476,0.429516 -5.79201,0.671951 -7.93236,0.457089 -1.75577,-0.176254 -1.85981,-0.22689 -1.50751,-0.733655 0.26722,-0.384375 0.598,-0.496018 1.12564,-0.37992 0.41097,0.09042 1.00853,0.09081 1.32791,8.53e-4 0.4989,-0.140503 0.53127,-0.279727 0.22975,-0.988497 -0.20207,-0.475001 -0.66357,-0.894585 -1.08791,-0.98908 -0.95426,-0.21251 -0.93378,-0.593655 0.063,-1.173181 0.44,-0.255805 0.8,-0.642063 0.8,-0.858347 0,-0.623932 1.20802,-1.528981 2.04082,-1.528981 0.69261,0 1.74566,-0.711367 1.44478,-0.97599 -0.0691,-0.06075 -0.7016,-0.02039 -1.4056,0.08974 -1.83625,0.287213 -2.47297,0.117864 -2.21964,-0.590348 0.24416,-0.682545 -0.42455,-1.930586 -1.03443,-1.930586 -0.23426,0 -0.42593,-0.173269 -0.42593,-0.385044 0,-0.310766 0.31214,-0.330287 1.61803,-0.101185 1.76613,0.309848 2.02734,0.198046 2.34675,-1.004428 0.18891,-0.711132 0.12664,-0.780818 -0.69765,-0.780818 -0.69819,0 -1.24816,-0.35262 -2.40609,-1.542684 -0.82557,-0.848474 -1.50104,-1.615095 -1.50104,-1.703602 0,-0.08851 0.2726,-0.160921 0.60577,-0.160921 0.60783,0 1.11703,-0.648201 0.75885,-0.966008 -0.10521,-0.09336 -0.59928,-0.169727 -1.09795,-0.169727 -0.75378,0 -0.90667,-0.119703 -0.90667,-0.709834 0,-0.39041 0.144,-0.709835 0.32,-0.709835 0.176,0 0.32,-0.321859 0.32,-0.715243 0,-0.636784 0.0965,-0.694517 0.88,-0.526295 0.484,0.103929 1.21338,0.298014 1.62083,0.431313 1.13109,0.370028 1.5976,0.293928 1.80825,-0.294974 0.33779,-0.944338 1.92444,-1.31508 3.97457,-0.928716 1.6863,0.317795 1.83066,0.301567 2.35635,-0.264899 1.09548,-1.180446 0.81115,-1.269806 -3.33949,-1.049511 -2.67011,0.141718 -4.03206,0.109342 -4.32,-0.102696 -0.74286,-0.547032 -0.45321,-0.807994 0.89681,-0.807994 1.37941,0 1.41983,-0.07878 0.76475,-1.490652 -0.2754,-0.593569 0.33609,-0.646926 2.18719,-0.190855 1.03313,0.254545 1.3267,0.22462 1.84,-0.187555 0.33591,-0.269732 0.61074,-0.670885 0.61074,-0.89145 0,-0.439079 0.76352,-0.312148 2.30411,0.383047 1.26476,0.570721 2.41333,0.489479 2.82928,-0.200126 0.56521,-0.937078 0.16358,-1.303495 -1.66462,-1.51868 -0.93816,-0.110425 -1.94961,-0.396593 -2.24766,-0.635929 -0.48724,-0.391253 -0.61566,-0.389332 -1.27272,0.01902 -1.02736,0.638491 -2.50839,0.603189 -2.50839,-0.0598 0,-0.838297 1.8476,-2.290775 3.14914,-2.475681 2.38507,-0.338841 2.5456,-0.410806 2.8939,-1.297319 0.34237,-0.871441 0.33535,-0.880254 -0.52803,-0.662984 -0.96912,0.243883 -1.48674,0.264033 -4.63501,0.180433 -1.67793,-0.04456 -2.16,-0.152411 -2.16,-0.483259 0,-0.298988 0.34018,-0.425901 1.14157,-0.425901 1.03496,0 1.12125,-0.05966 0.92403,-0.638851 -0.11964,-0.351368 -0.34534,-0.760233 -0.50156,-0.908589 -0.41241,-0.391652 -0.34796,-0.723619 0.11596,-0.597271 0.22,0.05992 1.084,0.181232 1.92,0.269592 l 1.52,0.160652 v -1.269815 -1.26983 l 2.1181,0.707393 c 1.16496,0.389069 2.28096,0.703146 2.48,0.69795 0.38626,-0.01007 -0.81931,-0.994437 -1.48238,-1.210371 -0.31328,-0.102016 -0.31239,-0.207245 0.004,-0.505082 0.63278,-0.595141 0.47407,-0.830507 -0.56,-0.830507 -1.20804,0 -2.24562,-0.895032 -2.22177,-1.916553 0.0138,-0.591587 0.39623,-1.03619 1.578,-1.834558 0.85788,-0.579561 2.30953,-1.857264 3.2259,-2.839339 0.91636,-0.98208 1.86516,-1.889217 2.10845,-2.015863 0.79897,-0.415918 1.65847,0.09373 2.686702,1.593124 0.55688,0.812063 1.30992,1.763963 1.673405,2.11533 l 0.66088,0.638852 -0.69578,0.657151 c -0.959385,0.906121 -0.874625,1.101953 0.38614,0.892091 0.84003,-0.139828 1.17985,-0.06212 1.52,0.347576 0.99494,1.198396 4.50259,3.584588 6.13422,4.172987 1.587,0.572309 1.70997,0.678221 1.32703,1.142899 -0.36715,0.445524 -0.31026,0.59949 0.43738,1.183686 l 0.85944,0.671549 -2.19032,0.0089 c -1.33722,0.0055 -3.05271,-0.223444 -4.40446,-0.587753 -1.21777,-0.3282 -2.42813,-0.523864 -2.68967,-0.434811 -0.71765,0.244348 -0.57818,1.031537 0.18276,1.031537 0.36206,0 1.29482,0.142215 2.07281,0.316033 1.35596,0.302957 1.39493,0.340817 0.94169,0.91498 -0.26004,0.32942 -0.4728,0.889902 -0.4728,1.245518 v 0.646577 l 1.54005,-0.762936 1.54006,-0.762938 0.7158,0.635128 0.71581,0.635126 -0.73587,0.554236 c -1.24098,0.934684 -4.71809,2.304239 -6.69759,2.638029 -1.449705,0.244453 -1.878265,0.431467 -1.878265,0.819623 0,0.820448 1.714835,0.617529 4.599735,-0.544297 1.7016,-0.685285 3.23477,-1.089503 4.43622,-1.169603 1.73316,-0.115548 1.88973,-0.07133 2.79638,0.789855 0.66922,0.635665 1.3496,0.958572 2.24404,1.065022 1.44294,0.171726 1.58008,0.420648 0.62956,1.142746 -0.35974,0.273286 -1.40374,1.163383 -2.32,1.97799 l -1.66594,1.481108 -1.65819,-0.530349 c -0.91201,-0.291691 -1.74001,-0.457755 -1.84,-0.369032 -0.36773,0.326278 -0.16724,0.918473 0.31094,0.918473 0.27101,0 1.05222,0.253252 1.73602,0.562781 1.15242,0.521659 1.34148,0.53203 2.58748,0.141968 1.75127,-0.548249 1.68725,-0.573433 1.44577,0.568671 -0.15651,0.740255 -0.10503,0.960994 0.20439,0.87637 0.22747,-0.06221 0.88159,-0.18486 1.45359,-0.272553 0.93088,-0.142708 1.04,-0.08896 1.04,0.512234 0,0.709325 -0.14778,0.75496 -3.84,1.185718 -1.20941,0.141101 -1.63443,0.05017 -2.65421,-0.567859 -1.28733,-0.780171 -1.98228,-0.916379 -2.30579,-0.451926 -0.10877,0.156163 -0.74415,0.283934 -1.41194,0.283934 -2.43968,-5e-6 -5.148055,0.366167 -5.148055,0.69601 0,0.18215 0.202725,0.577183 0.450505,0.877852 0.41729,0.506357 0.54118,0.51674 1.68,0.140797 0.67622,-0.223228 2.38149,-0.426276 3.78949,-0.45121 2.24975,-0.03985 2.78823,0.05574 4.44325,0.788735 1.03579,0.458739 2.25979,0.878595 2.72,0.933015 0.46021,0.05442 0.90875,0.111809 0.99675,0.127533 0.088,0.01574 -0.11953,0.216188 -0.46117,0.445464 -0.39664,0.266194 -1.36503,0.416872 -2.67918,0.416872 -1.84305,0 -2.014,0.04707 -1.63663,0.450521 0.27751,0.296691 0.78258,0.413107 1.47919,0.340948 0.9411,-0.09748 1.05779,-0.03336 1.05779,0.581399 0,0.679744 -0.0364,0.688663 -2.24,0.548766 -1.232,-0.07821 -2.24,-0.04062 -2.24,0.08354 0,0.611616 1.11186,1.118105 2.45449,1.118105 0.79683,0 1.92731,0.201485 2.51218,0.447745 0.80517,0.339013 1.21977,0.373488 1.70733,0.141966 0.35416,-0.168178 0.72539,-0.305777 0.82496,-0.305777 0.40301,0 0.1473,1.942843 -0.29896,2.271472 -0.70055,0.515876 -0.58786,0.851801 0.28576,0.851801 0.6872,0 1.15424,0.463087 1.15424,1.144469 0,0.135422 -0.54,0.04406 -1.2,-0.203038 -1.85371,-0.693999 -4.94252,-0.586948 -7.97074,0.276247 -1.4359,0.409305 -3.55989,0.890854 -4.71999,1.070107 -2.132685,0.329531 -2.576295,0.705976 -1.64237,1.393704 0.58292,0.429254 2.05891,0.169527 4.0211,-0.70758 0.79641,-0.355996 2.59641,-0.865388 4,-1.131983 2.28597,-0.434191 2.71788,-0.441595 4.14334,-0.07106 l 1.59134,0.413657 -1.27134,0.20504 c -3.02447,0.487787 -4.63134,1.044879 -4.63134,1.60566 0,0.673094 0.47116,0.686802 4.32,0.125695 3.679,-0.536347 5.28,-0.550597 5.28,-0.047 0,0.210525 -0.57174,0.611533 -1.27052,0.891126 -0.69878,0.279595 -1.52678,0.759789 -1.84,1.067105 -0.77908,0.764397 -2.77268,1.634062 -3.74588,1.634062 -0.44104,0 -1.30897,-0.214554 -1.92873,-0.476787 -1.26669,-0.535965 -1.66399,-0.400438 -1.17972,0.40243 0.19042,0.315713 1.11112,0.752803 2.20438,1.046509 1.52508,0.409712 2.11413,0.446042 3.13893,0.19359 0.69384,-0.170926 1.60785,-0.311487 2.03113,-0.312356 0.74691,-0.0014 0.75269,0.01499 0.19584,0.560957 -0.77392,0.75879 -0.15973,1.424996 1.31375,1.424996 1.61347,0 1.30462,0.478225 -0.53494,0.828275 -2.24196,0.426624 -3.95775,0.384222 -5.35082,-0.13224 -0.97883,-0.362884 -1.9886,-0.405077 -5.78016,-0.241519 l -4.59413,0.19818 0.19377,0.859666 c 0.10657,0.472818 0.24283,0.903199 0.30279,0.956401 0.06,0.0532 0.74246,-0.158272 1.51667,-0.469946 0.77421,-0.311671 1.91164,-0.569283 2.52764,-0.572472 1.66133,-0.0086 7.9888,1.109344 9.05956,1.600645 0.51958,0.238403 1.26691,0.351258 1.6949,0.255944 0.61213,-0.136317 0.76554,-0.05909 0.76554,0.385399 0,0.560874 -0.26512,0.63032 -3.68,0.963988 -0.8803,0.08602 -0.84709,0.112779 0.4,0.322435 1.4996,0.252099 1.63231,0.428389 0.8,1.062658 -0.94017,0.716455 -1.59982,0.791391 -3.19232,0.362642 -2.05617,-0.553584 -2.06494,-0.551085 -1.83773,0.523548 0.25054,1.184975 -0.2979,1.632956 -2.23651,1.82684 l -1.42622,0.142633 0.17768,-0.971519 c 0.22574,-1.234258 -0.15234,-1.506411 -2.60489,-1.875076 -2.67967,-0.402803 -3.040005,-0.177258 -3.040005,1.902825 v 1.662785 l 1.360005,0.502457 c 0.748,0.276355 2.368,0.540425 3.59999,0.586825 2.17296,0.0818 2.23959,0.10625 2.22654,0.81567 -0.0142,0.77445 -0.0233,0.77358 2.57346,0.24788 0.54347,-0.11002 0.64,0.0166 0.64,0.83918 v 0.96873 l -5.2495,0.36032 -5.249485,0.360316 0.199935,7.41488 c 0.20252,7.51076 0.84567,13.97121 1.63562,16.42977 0.40773,1.26895 0.39758,1.34868 -0.17161,1.34868 -0.33272,0 -0.60495,-0.18106 -0.60495,-0.40236 0,-0.22129 -0.30939,-1.01986 -0.68752,-1.77458 -0.928075,-1.85235 -1.209865,-5.98839 -1.433125,-21.03465 -0.17152,-11.559776 -0.20022,-11.996203 -0.78868,-11.996203 -0.466642,0 -0.610692,0.203068 -0.610692,0.860922 0,0.473505 -0.23937,1.335954 -0.53194,1.916553 -0.39798,0.789799 -0.55974,2.122722 -0.64236,5.293082 -0.0607,2.330586 -0.16218,4.283366 -0.22544,4.339496 -0.0633,0.0561 -0.20275,-0.38469 -0.30996,-0.9796 -0.10722,-0.59492 -0.39262,-1.32154 -0.63424,-1.614726 -0.72984,-0.88562 -1.34463,4.938736 -0.98233,9.306176 0.67577,8.14598 0.24345,10.92938 -2.19461,14.1296 -1.80619,2.3708 -2.27215,2.4853 -2.02431,0.49744 z m 5.9452,-30.909596 c 0,-0.08103 -0.288,-0.306922 -0.64,-0.501975 -0.5869,-0.325211 -0.64,-0.283562 -0.64,0.501975 0,0.785538 0.0531,0.827188 0.64,0.501976 0.352,-0.195052 0.64,-0.420941 0.64,-0.501976 z m -5.2089,-0.468933 c 0.1133,-0.305581 -1.79627,-1.360228 -2.052,-1.133311 -0.0643,0.0571 0.0313,0.449826 0.21246,0.87272 0.24149,0.563571 0.51491,0.744687 1.02389,0.678229 0.38193,-0.04986 0.74897,-0.237806 0.81565,-0.417638 z m -11.1111,-2.938272 c 0,-0.441676 -0.21334,-0.567868 -0.96,-0.567868 -0.528,0 -0.96,0.05344 -0.96,0.118746 0,0.06531 -0.0874,0.32085 -0.19424,0.567868 -0.155,0.358387 0.039,0.449124 0.96,0.449124 0.9409,0 1.15424,-0.104962 1.15424,-0.567868 z m 11.86103,-0.86179 c 0.34043,-0.161659 0.61897,-0.459655 0.61897,-0.662214 0,-0.274081 -0.47066,-0.335144 -1.84,-0.238718 -2.10394,0.148154 -2.14556,0.164821 -1.88958,0.756707 0.22069,0.510277 2.15126,0.599788 3.11061,0.144225 z m 8.659787,-0.469073 c 0.38661,-0.421714 0.36902,-0.455703 -0.146995,-0.283934 -0.32239,0.107315 -0.72689,0.195128 -0.89888,0.195128 -0.17199,0 -0.22372,0.12777 -0.11494,0.283934 0.28728,0.412436 0.66149,0.349534 1.160815,-0.195128 z m -7.942317,-5.179977 c -0.18531,-0.628771 -1.0585,-1.035807 -1.0585,-0.493417 0,0.387598 0.62415,1.041646 0.99404,1.041646 0.12432,0 0.15333,-0.246703 0.0645,-0.548229 z m 2.4615,0.157093 c 0,-0.397028 -0.87977,-1.202225 -1.09044,-0.99801 -0.0632,0.06129 0.008,0.398927 0.15742,0.750295 0.29897,0.701193 0.93302,0.869536 0.93302,0.247715 z m 11.731917,-0.815583 c -0.0888,-0.195204 -0.1614,-0.03549 -0.1614,0.354917 0,0.390409 0.0726,0.550122 0.1614,0.354917 0.0888,-0.195205 0.0888,-0.51463 0,-0.709834 z m -8.051915,-5.607694 c 0,-2.5767 0.11109,-4.836869 0.24688,-5.0226 0.29629,-0.405262 -0.0613,-2.643613 -0.42236,-2.643613 -0.13952,0 -0.347872,0.415252 -0.462992,0.922784 -0.38091,1.679261 -0.49513,1.852658 -1.45217,2.204397 -0.82357,0.302684 -0.94936,0.496025 -0.94936,1.459119 0,0.700809 0.16875,1.167659 0.45763,1.266019 0.8066,0.274635 1.11859,1.721131 0.91724,4.252681 l -0.19361,2.434262 0.92937,-0.09407 0.929372,-0.09407 z m -7.200002,3.13242 c 0,-0.456264 -0.12901,-0.516372 -0.70352,-0.327798 -1.02418,0.336164 -1.10063,0.886518 -0.12315,0.886518 0.60882,0 0.82667,-0.147233 0.82667,-0.55872 z m 0,-1.712751 c 0,-0.156163 -0.432,-0.283933 -0.96,-0.283933 -0.528,0 -0.96,0.12777 -0.96,0.283933 0,0.156164 0.432,0.283934 0.96,0.283934 0.528,0 0.96,-0.12777 0.96,-0.283934 z m -0.2652,-3.59318 c 0.86812,-0.697091 0.71334,-0.956809 -0.4548,-0.763148 -1.3457,0.223091 -1.82387,0.605127 -1.19733,0.956599 0.67488,0.378583 0.98497,0.342273 1.65213,-0.193451 z M 102.86705,71.473 c 0,-0.409323 -1.07758,-1.126106 -2,-1.33037 -0.81837,-0.181221 -0.880005,-0.133054 -0.880005,0.687713 0,0.856734 0.04221,0.882583 1.440005,0.882583 0.792,0 1.44,-0.10797 1.44,-0.239926 z M 85.202183,70.618764 c 0.33159,-0.186635 0.31549,-0.307054 -0.08,-0.598288 -0.39572,-0.291405 -0.59153,-0.293644 -0.97514,-0.0112 -0.264,0.194405 -0.48,0.465591 -0.48,0.602631 0,0.313084 0.98325,0.317442 1.53514,0.0068 z m -3.29514,-2.596978 c -0.10878,-0.156164 -0.54928,-0.283935 -0.97889,-0.283935 -0.42961,0 -0.78111,0.127771 -0.78111,0.283935 0,0.156164 0.44049,0.283934 0.97888,0.283934 0.57111,0 0.8965,-0.11828 0.78112,-0.283934 z m 10.39641,-0.952101 c 0.81713,-0.304852 0.91848,-0.422174 0.49057,-0.567868 -0.29663,-0.100996 -1.09849,-0.183635 -1.7819,-0.183635 -0.91506,0 -1.33284,0.149673 -1.58508,0.567868 -0.31149,0.516419 -0.24336,0.567867 0.752,0.567867 0.60198,0 1.55797,-0.172903 2.12441,-0.384232 z m 0.96359,-5.284456 c 0,-0.15067 -0.27927,-0.406553 -0.62058,-0.568634 -0.79847,-0.379166 -1.20577,0.12984 -0.42615,0.532561 0.71995,0.3719 1.04673,0.383163 1.04673,0.03608 z m 4.686692,-2.390405 c 0.39127,-0.728015 0.46154,-1.349989 0.29009,-2.567571 -0.20868,-1.481958 -0.28029,-1.592105 -0.921522,-1.417418 -0.3824,0.104169 -0.7288,0.213936 -0.76978,0.243913 -0.21507,0.157314 0.37175,4.701823 0.60712,4.701823 0.15276,0 0.51011,-0.432337 0.794092,-0.960747 z M 97.659333,49.259728 c 0.332182,-0.582083 0.313542,-0.702568 -0.12166,-0.786332 -0.58332,-0.112275 -1.05848,0.417111 -1.06574,1.187334 -0.007,0.695842 0.69705,0.458225 1.1874,-0.401002 z"
       id="path13616"
       inkscape:export-filename="..\RIT\Year 1\semester2\ISTE240\assets\images\indProject\treeIcon.svg"
       inkscape:export-xdpi="96"
       inkscape:export-ydpi="96" />
  </g>
</svg>
