<?xml version="1.0" encoding="UTF-8" standalone="no"?>
<!-- Created with Inkscape (http://www.inkscape.org/) -->

<svg
   width="87.835815mm"
   height="21.830933mm"
   viewBox="0 0 87.835815 21.830933"
   version="1.1"
   id="svg5"
   inkscape:version="1.2.2 (732a01da63, 2022-12-09)"
   sodipodi:docname="drawing2.svg"
   xml:space="preserve"
   inkscape:export-filename="drawing.png"
   inkscape:export-xdpi="96"
   inkscape:export-ydpi="96"
   xmlns:inkscape="http://www.inkscape.org/namespaces/inkscape"
   xmlns:sodipodi="http://sodipodi.sourceforge.net/DTD/sodipodi-0.dtd"
   xmlns="http://www.w3.org/2000/svg"
   xmlns:svg="http://www.w3.org/2000/svg"><sodipodi:namedview
     id="namedview7"
     pagecolor="#ffffff"
     bordercolor="#000000"
     borderopacity="0.25"
     inkscape:showpageshadow="2"
     inkscape:pageopacity="0.0"
     inkscape:pagecheckerboard="0"
     inkscape:deskcolor="#d1d1d1"
     inkscape:document-units="mm"
     showgrid="false"
     inkscape:zoom="2"
     inkscape:cx="189.25"
     inkscape:cy="764.75"
     inkscape:window-width="1920"
     inkscape:window-height="991"
     inkscape:window-x="-9"
     inkscape:window-y="-9"
     inkscape:window-maximized="1"
     inkscape:current-layer="layer1" /><defs
     id="defs2"><rect
       x="242.88969"
       y="799.23834"
       width="260.12173"
       height="75.492737"
       id="rect3734" /><rect
       x="87.958633"
       y="717.63074"
       width="524.95947"
       height="187.08661"
       id="rect827-8-2" /></defs><g
     inkscape:label="Layer 1"
     inkscape:groupmode="layer"
     id="layer1"
     transform="translate(-28.61925,-210.41331)"><text
       xml:space="preserve"
       transform="matrix(0.51991464,0,0,0.44738326,-19.521933,-110.94156)"
       id="text825-8-5"
       style="font-size:53.3333px;white-space:pre;shape-inside:url(#rect827-8-2);display:inline;fill:#ffba38;fill-opacity:1;stroke-width:0.982677"
       inkscape:export-filename="mainiconlong.svg"
       inkscape:export-xdpi="96"
       inkscape:export-ydpi="96"><tspan
         x="87.958984"
         y="766.28845"
         id="tspan517">U</tspan></text><path
       id="rect2084"
       style="fill:#130f04;fill-opacity:1;stroke-width:0.512541"
       d="m 45.599248,215.53502 -0.962578,0.35947 -0.675882,-1.00219 0.962579,-0.35946 z m -3.166829,-1.00502 2.498829,1e-5 -9e-6,1.28649 h -2.498818 z m 11.015808,16.58722 0.966806,-0.37817 0.60838,0.86278 -0.966804,0.37817 z m 0.619109,-0.64227 1.048799,-2e-5 3e-6,1.50376 h -1.048805 z m -11.602719,-14.75069 2.574539,-1.017 10.993602,15.40949 -2.574539,1.01702 z m 12.548928,-1.19333 h 2.914819 l -5e-6,17.44646 -2.914805,10e-6 z" /><path
       id="rect2084-2"
       style="fill:#ffba38;fill-opacity:1;stroke-width:0.5128"
       d="m 53.749325,215.52853 0.962579,0.35984 0.675882,-1.0032 -0.962577,-0.35983 z m 3.16683,-1.00603 -2.498829,1e-5 1.267644,0.57594 c 3.058473,-0.63961 2.322795,-0.57786 1.231185,-0.57595 z m -11.015807,16.60396 -0.966807,-0.37856 -0.608379,0.86365 0.966803,0.37856 z m -0.61911,-0.64292 -1.048797,-2e-5 -6e-6,1.50529 h 1.048805 z m 12.650584,-15.95904 -3.622403,0.17542 -10.993603,15.42506 2.574539,1.01805 z m -13.596794,-9.7e-4 h -2.914817 l 3e-6,17.46407 h 2.914807 z"
       sodipodi:nodetypes="ccccccccccccccccccccccccccccc" /><rect
       style="fill:#130f04;fill-opacity:1;stroke:none;stroke-width:0.318892;stroke-opacity:1"
       id="rect8006"
       width="3.5173805"
       height="1.9858117"
       x="41.398804"
       y="210.4133" /><text
       xml:space="preserve"
       transform="matrix(1.4126415,0,0,1.2918999,-283.60114,-836.92967)"
       id="text3732"
       style="font-style:normal;font-variant:normal;font-weight:normal;font-stretch:normal;font-family:Oufit;-inkscape-font-specification:Oufit;white-space:pre;shape-inside:url(#rect3734);display:inline;fill:#130f04;fill-opacity:1;stroke-width:0.983032;stroke-dasharray:none"><tspan
         x="242.89062"
         y="810.18625"
         id="tspan519">
</tspan><tspan
         x="242.89062"
         y="825.18625"
         id="tspan523"><tspan
           style="font-family:'Century Gothic';-inkscape-font-specification:'Century Gothic'"
           id="tspan521">Guides</tspan></tspan></text><path
       sodipodi:type="star"
       style="fill:#ffba38;fill-opacity:1;stroke-width:1.328;stroke-dasharray:none"
       id="path14368"
       inkscape:flatsided="false"
       sodipodi:sides="3"
       sodipodi:cx="57.422852"
       sodipodi:cy="212.50487"
       sodipodi:r1="0.25258097"
       sodipodi:r2="0.12629049"
       sodipodi:arg1="-0.53691074"
       sodipodi:arg2="0.51028681"
       inkscape:rounded="0"
       inkscape:randomized="0"
       d="m 57.639893,212.37568 -0.10684,0.19087 -0.106839,0.19088 -0.111883,-0.18797 -0.111883,-0.18796 0.218722,-0.003 z"
       inkscape:transform-center-x="0.001465928"
       inkscape:transform-center-y="0.036639643"
       transform="matrix(0.8714432,0,0,0.5939571,7.6985923,88.379843)" /></g></svg>
